REM DIRINDEX 1\5,1\2\6,1\2\7,1\3\8,1\3\9,1\4\10,1\4\11,1\4\12
REM DIRNAME folder01,folder02,folder03,folder04,folder05,folder06,folder07,folder08,folder09,folder10,folder11,folder12
TITLE ""
FILE "EJE_DB3000_5th_5C_20.mp3" MP3
  TRACK 01 AUDIO
    TITLE "0:"
    INDEX 01 00:00:00
  TRACK 02 AUDIO
    TITLE "10:cjc026_10902"
    INDEX 01 00:00:05
  TRACK 03 AUDIO
    TITLE "0:"
    INDEX 01 00:00:72
  TRACK 04 AUDIO
    TITLE "11:cjc026_10903"
    INDEX 01 00:01:22
  TRACK 05 AUDIO
    TITLE "0:"
    INDEX 01 00:02:20
  TRACK 06 AUDIO
    TITLE "12:cjc026_10904"
    INDEX 01 00:02:45
  TRACK 07 AUDIO
    TITLE "0:"
    INDEX 01 00:03:37
  TRACK 08 AUDIO
    TITLE "10:cjc026_10905"
    INDEX 01 00:03:63
  TRACK 09 AUDIO
    TITLE "0:"
    INDEX 01 00:04:50
  TRACK 10 AUDIO
    TITLE "11:cjc026_10906"
    INDEX 01 00:05:01
  TRACK 11 AUDIO
    TITLE "0:"
    INDEX 01 00:06:12
  TRACK 12 AUDIO
    TITLE "12:cjc026_10907"
    INDEX 01 00:06:37
  TRACK 13 AUDIO
    TITLE "0:"
    INDEX 01 00:07:25
  TRACK 14 AUDIO
    TITLE "10:cjc026_10908"
    INDEX 01 00:07:52
  TRACK 15 AUDIO
    TITLE "0:"
    INDEX 01 00:08:42
  TRACK 16 AUDIO
    TITLE "11:cjc026_10909"
    INDEX 01 00:08:70
  TRACK 17 AUDIO
    TITLE "0:"
    INDEX 01 00:10:16
  TRACK 18 AUDIO
    TITLE "12:cjc026_10910"
    INDEX 01 00:10:43
  TRACK 19 AUDIO
    TITLE "0:"
    INDEX 01 00:11:33
  TRACK 20 AUDIO
    TITLE "10:cjc026_10911"
    INDEX 01 00:11:60
  TRACK 21 AUDIO
    TITLE "0:"
    INDEX 01 00:12:58
  TRACK 22 AUDIO
    TITLE "11:cjc026_10912"
    INDEX 01 00:13:08
  TRACK 23 AUDIO
    TITLE "0:"
    INDEX 01 00:14:17
  TRACK 24 AUDIO
    TITLE "12:cjc026_10913"
    INDEX 01 00:14:43
  TRACK 25 AUDIO
    TITLE "0:"
    INDEX 01 00:15:42
  TRACK 26 AUDIO
    TITLE "10:cjc026_10914"
    INDEX 01 00:15:68
  TRACK 27 AUDIO
    TITLE "0:"
    INDEX 01 00:16:55
  TRACK 28 AUDIO
    TITLE "11:cjc026_10915"
    INDEX 01 00:17:08
  TRACK 29 AUDIO
    TITLE "0:"
    INDEX 01 00:18:09
  TRACK 30 AUDIO
    TITLE "12:cjc026_10916"
    INDEX 01 00:18:39
  TRACK 31 AUDIO
    TITLE "0:"
    INDEX 01 00:19:26
  TRACK 32 AUDIO
    TITLE "10:cjc026_10917"
    INDEX 01 00:19:52
  TRACK 33 AUDIO
    TITLE "0:"
    INDEX 01 00:20:55
  TRACK 34 AUDIO
    TITLE "11:cjc026_10918"
    INDEX 01 00:21:09
  TRACK 35 AUDIO
    TITLE "0:"
    INDEX 01 00:22:07
  TRACK 36 AUDIO
    TITLE "12:cjc026_10919"
    INDEX 01 00:22:32
  TRACK 37 AUDIO
    TITLE "0:"
    INDEX 01 00:23:36
  TRACK 38 AUDIO
    TITLE "10:cjc026_10920"
    INDEX 01 00:23:65
  TRACK 39 AUDIO
    TITLE "0:"
    INDEX 01 00:24:61
  TRACK 40 AUDIO
    TITLE "11:cjc026_10921"
    INDEX 01 00:25:13
  TRACK 41 AUDIO
    TITLE "0:"
    INDEX 01 00:26:13
  TRACK 42 AUDIO
    TITLE "12:cjc026_10922"
    INDEX 01 00:26:38
  TRACK 43 AUDIO
    TITLE "0:"
    INDEX 01 00:27:36
  TRACK 44 AUDIO
    TITLE "10:cjc026_10923"
    INDEX 01 00:27:61
  TRACK 45 AUDIO
    TITLE "0:"
    INDEX 01 00:28:62
  TRACK 46 AUDIO
    TITLE "11:cjc026_10924"
    INDEX 01 00:29:15
  TRACK 47 AUDIO
    TITLE "0:"
    INDEX 01 00:30:32
  TRACK 48 AUDIO
    TITLE "12:cjc026_10925"
    INDEX 01 00:30:57
  TRACK 49 AUDIO
    TITLE "0:"
    INDEX 01 00:31:61
  TRACK 50 AUDIO
    TITLE "10:cjc026_10926"
    INDEX 01 00:32:11
  TRACK 51 AUDIO
    TITLE "0:"
    INDEX 01 00:33:11
  TRACK 52 AUDIO
    TITLE "11:cjc026_10927"
    INDEX 01 00:33:38
  TRACK 53 AUDIO
    TITLE "0:"
    INDEX 01 00:34:24
  TRACK 54 AUDIO
    TITLE "12:cjc026_10928"
    INDEX 01 00:34:49
  TRACK 55 AUDIO
    TITLE "0:"
    INDEX 01 00:35:49
  TRACK 56 AUDIO
    TITLE "10:cjc026_10929"
    INDEX 01 00:35:74
  TRACK 57 AUDIO
    TITLE "0:"
    INDEX 01 00:36:74
  TRACK 58 AUDIO
    TITLE "11:cjc026_10930"
    INDEX 01 00:37:24
  TRACK 59 AUDIO
    TITLE "0:"
    INDEX 01 00:38:20
  TRACK 60 AUDIO
    TITLE "12:cjc026_10931"
    INDEX 01 00:38:45
  TRACK 61 AUDIO
    TITLE "0:"
    INDEX 01 00:39:45
  TRACK 62 AUDIO
    TITLE "10:cjc026_10932"
    INDEX 01 00:39:70
  TRACK 63 AUDIO
    TITLE "0:"
    INDEX 01 00:40:64
  TRACK 64 AUDIO
    TITLE "11:cjc026_10933"
    INDEX 01 00:41:16
  TRACK 65 AUDIO
    TITLE "0:"
    INDEX 01 00:42:33
  TRACK 66 AUDIO
    TITLE "12:cjc026_10934"
    INDEX 01 00:42:57
  TRACK 67 AUDIO
    TITLE "0:"
    INDEX 01 00:43:50
  TRACK 68 AUDIO
    TITLE "10:cjc026_10935"
    INDEX 01 00:44:05
  TRACK 69 AUDIO
    TITLE "0:"
    INDEX 01 00:45:00
  TRACK 70 AUDIO
    TITLE "11:cjc026_10936"
    INDEX 01 00:45:26
  TRACK 71 AUDIO
    TITLE "0:"
    INDEX 01 00:46:23
  TRACK 72 AUDIO
    TITLE "12:cjc026_10937"
    INDEX 01 00:46:47
  TRACK 73 AUDIO
    TITLE "0:"
    INDEX 01 00:47:42
  TRACK 74 AUDIO
    TITLE "10:cjc026_10938"
    INDEX 01 00:47:68
  TRACK 75 AUDIO
    TITLE "0:"
    INDEX 01 00:48:69
  TRACK 76 AUDIO
    TITLE "11:cjc026_10939"
    INDEX 01 00:49:20
  TRACK 77 AUDIO
    TITLE "0:"
    INDEX 01 00:50:19
  TRACK 78 AUDIO
    TITLE "12:cjc026_10940"
    INDEX 01 00:50:41
  TRACK 79 AUDIO
    TITLE "0:"
    INDEX 01 00:51:46
